<svg width="50" height="50" viewBox="0 0 50 50" fill="none" xmlns="http://www.w3.org/2000/svg">
<path d="M1.16215 22.7504C1.40536 20.7699 1.8918 18.7599 2.65185 16.8386C3.44231 14.8877 4.50639 13.0255 5.81368 11.3111C7.15138 9.59664 8.70189 8.05958 10.4044 6.8181C12.1069 5.57663 13.9311 4.54207 15.8464 3.77354C17.7313 2.97544 19.7379 2.44338 21.8052 2.14779C21.9876 2.11824 22.1397 2.11824 22.3221 2.08868C20.9236 3.53706 20.1939 5.57663 20.4979 7.67531C20.7108 9.24194 21.4708 10.5721 22.5653 11.6067C20.954 11.9022 19.3731 12.4639 17.8833 13.2915C16.2416 14.2078 14.7823 15.4493 13.5966 16.9864C12.8062 18.0209 12.1677 19.1146 11.7117 20.2674C11.2557 21.4202 10.9516 22.6026 10.7996 23.8145C10.678 25.0264 10.678 26.2383 10.8604 27.4502C11.0429 28.6622 11.3773 29.8149 11.8333 30.9382C12.3197 32.0319 12.9582 33.096 13.7182 34.101C14.5087 35.0764 15.4208 35.9632 16.4848 36.7317C18.0658 37.8845 19.7987 38.7122 21.6532 39.126C23.5382 39.5694 25.3927 39.6581 27.2168 39.4216C29.0409 39.1851 30.8043 38.5644 32.4764 37.6481C34.1181 36.7317 35.547 35.4903 36.7631 33.9532C37.5536 32.9186 38.192 31.825 38.648 30.6722C39.1041 29.5194 39.4081 28.3074 39.5601 27.0955C39.7121 25.9132 39.6817 24.7013 39.4993 23.4893C39.4385 23.1346 39.2865 22.6026 39.1041 21.9818C38.344 19.6762 39.4993 17.1637 41.8099 16.2178C44.4245 15.1242 47.4343 16.4839 48.3159 19.1146C48.7112 20.297 49.0456 21.4202 49.1368 22.1592C49.4408 24.1692 49.4408 26.1792 49.228 28.1596C48.9848 30.1401 48.468 32.1501 47.7079 34.0714C46.9174 35.9928 45.8534 37.855 44.5157 39.599C43.178 41.3134 41.6579 42.8209 39.9553 44.0919C38.2832 45.3629 36.4591 46.3679 34.5437 47.166C32.6284 47.9346 30.6219 48.4666 28.5849 48.7622C26.5176 49.0578 24.4502 49.0578 22.4133 48.8509C20.3459 48.6144 18.309 48.1119 16.3328 47.373C14.3263 46.6044 12.4414 45.5699 10.678 44.2693C8.9147 42.9687 7.36419 41.4907 6.0569 39.8354C4.7496 38.2097 3.68553 36.4361 2.89507 34.5739C2.10461 32.7117 1.55737 30.7608 1.25335 28.7804C0.94933 26.7704 0.918928 24.7308 1.16215 22.7504Z" fill="#F36F25"/>
<path d="M27.3992 11.4589C30.0857 11.4589 32.2636 9.34142 32.2636 6.72943C32.2636 4.11744 30.0857 2 27.3992 2C24.7127 2 22.5349 4.11744 22.5349 6.72943C22.5349 9.34142 24.7127 11.4589 27.3992 11.4589Z" fill="#010101"/>
</svg>
