<svg width="501" height="100" viewBox="0 0 501 100" fill="none" xmlns="http://www.w3.org/2000/svg">
<g clip-path="url(#clip0_31_44)">
<path d="M1.08554 44.1497C1.58867 39.936 2.59493 35.6594 4.16722 31.5714C5.80239 27.4206 8.00359 23.4585 10.7079 19.8108C13.4751 16.1631 16.6826 12.8927 20.2045 10.2513C23.7264 7.60985 27.4999 5.40865 31.4621 3.77348C35.3613 2.07541 39.5121 0.943371 43.7888 0.314458C44.1661 0.251566 44.4806 0.251566 44.8579 0.188675C41.9649 3.27035 40.4555 7.60985 41.0844 12.0751C41.5247 15.4084 43.097 18.2385 45.361 20.4397C42.0278 21.0686 38.7574 22.2635 35.6758 24.0245C32.2796 25.9741 29.2609 28.6156 26.8081 31.8859C25.1729 34.0871 23.8522 36.4141 22.9088 38.8668C21.9655 41.3196 21.3366 43.8353 21.0221 46.4138C20.7705 48.9923 20.7705 51.5709 21.1479 54.1494C21.5252 56.728 22.217 59.1807 23.1604 61.5706C24.1667 63.8976 25.4874 66.1617 27.0597 68.3C28.6948 70.3754 30.5816 72.2621 32.7828 73.8973C36.0531 76.3501 39.6379 78.111 43.4743 78.9915C47.3736 79.9349 51.2099 80.1236 54.9834 79.6204C58.7569 79.1173 62.4046 77.7966 65.8636 75.8469C69.2597 73.8973 72.2156 71.2559 74.7313 67.9855C76.3665 65.7843 77.6872 63.4573 78.6306 61.0046C79.5739 58.5518 80.2028 55.9733 80.5173 53.3947C80.8317 50.8791 80.7689 48.3005 80.3915 45.722C80.2657 44.9673 79.9513 43.8353 79.5739 42.5145C78.0016 37.609 80.3915 32.2633 85.1713 30.2507C90.5799 27.9238 96.8062 30.8168 98.63 36.4141C99.4476 38.9297 100.139 41.3196 100.328 42.8919C100.957 47.1685 100.957 51.4451 100.517 55.6588C100.014 59.8725 98.9445 64.1492 97.3722 68.2371C95.737 72.325 93.5358 76.2872 90.7686 79.9978C88.0014 83.6455 84.8568 86.8529 81.3349 89.5572C77.8759 92.2616 74.1024 94.3999 70.1402 96.098C66.1781 97.7331 62.0272 98.8652 57.8135 99.4941C53.5369 100.123 49.2603 100.123 45.0466 99.6828C40.77 99.1796 36.5563 98.1105 32.4683 96.5382C28.3175 94.903 24.4182 92.7018 20.7705 89.9346C17.1228 87.1674 13.9154 84.0228 11.211 80.5009C8.50672 77.0419 6.30552 73.2684 4.67035 69.3062C3.03517 65.3441 1.90313 61.1933 1.27422 56.9795C0.645303 52.7029 0.582412 48.3634 1.08554 44.1497Z" fill="#F36F25"/>
<path d="M55.3607 20.1252C60.9181 20.1252 65.4233 15.62 65.4233 10.0626C65.4233 4.50518 60.9181 0 55.3607 0C49.8033 0 45.2981 4.50518 45.2981 10.0626C45.2981 15.62 49.8033 20.1252 55.3607 20.1252Z" fill="#010101"/>
<path d="M160.799 9.27217C169.418 9.27217 177.129 12.0845 183.842 17.6185L186.927 20.4309C187.29 20.8845 187.834 21.3381 188.379 22.0638C188.651 22.336 189.104 22.336 189.376 22.0638C189.739 21.701 190.284 21.1566 190.828 20.5216C198.721 13.0825 207.611 9.27217 217.409 9.27217C225.665 9.27217 233.195 11.9938 239.999 17.3464C246.44 22.4267 250.704 28.7772 253.063 36.3071C253.063 36.3071 253.063 36.3071 253.063 36.3978C253.607 38.0308 254.514 42.3854 254.514 44.6534V82.847C254.514 87.3831 250.432 91.1026 245.442 91.1026C240.452 91.1026 236.37 87.3831 236.37 82.847V43.5648C236.37 39.2101 234.556 35.1277 231.38 31.9525L231.108 31.6803C223.669 24.3319 210.968 24.3319 203.529 31.5896L203.166 31.9525C199.9 35.1277 197.995 39.3916 197.995 43.7462V82.6656C197.995 87.3831 193.822 91.1933 188.651 91.1933C183.661 91.1933 179.579 87.4738 179.579 82.9377V43.7462C179.579 39.3916 177.764 35.2184 174.498 32.0432C166.968 24.604 154.086 24.6948 146.647 32.2246L146.102 32.7689C143.018 35.9442 141.294 40.0266 141.294 44.2905V82.9377C141.294 87.4738 137.212 91.1933 132.222 91.1933C127.232 91.1933 123.15 87.4738 123.15 82.9377V44.6534C123.15 33.404 129.501 24.3319 136.214 18.5257C143.472 12.3567 151.546 9.27217 160.799 9.27217Z" fill="#F36F25"/>
<path d="M302.324 91.1933C295.883 91.1933 289.895 90.1047 284.452 88.0181C278.918 85.9315 274.201 83.0284 270.209 79.3089C266.217 75.5893 263.042 71.2347 260.774 66.245C258.506 61.2554 257.327 55.9028 257.327 50.1874C257.327 44.472 258.506 39.1194 260.774 34.1298C263.042 29.1401 266.217 24.7855 270.209 21.0659C274.201 17.3463 279.009 14.4433 284.452 12.3567C289.986 10.2701 295.883 9.18144 302.324 9.18144C308.765 9.18144 314.753 10.2701 320.196 12.3567C325.73 14.4433 330.448 17.3463 334.44 21.0659C338.431 24.7855 341.607 29.1401 343.875 34.1298C346.143 39.1194 347.322 44.472 347.322 50.1874C347.322 55.9028 346.143 61.2554 343.875 66.245C341.607 71.2347 338.431 75.5893 334.44 79.3089C330.448 83.0284 325.64 85.9315 320.196 88.0181C314.753 90.1047 308.765 91.1933 302.324 91.1933ZM302.324 77.1316C306.316 77.1316 310.126 76.4965 313.574 75.1357C317.112 73.7749 320.106 71.9605 322.737 69.6017C325.367 67.243 327.363 64.4306 328.906 61.0739C330.357 57.7172 331.174 54.0884 331.174 50.006C331.174 46.0142 330.448 42.2947 328.906 38.938C327.454 35.5813 325.367 32.7689 322.737 30.4102C320.106 28.0514 317.112 26.237 313.574 24.8762C310.036 23.5154 306.316 22.8803 302.324 22.8803C298.333 22.8803 294.522 23.5154 291.075 24.8762C287.537 26.237 284.543 28.0514 281.912 30.4102C279.281 32.7689 277.285 35.5813 275.743 38.938C274.291 42.2947 273.475 45.9235 273.475 50.006C273.475 53.9977 274.201 57.7172 275.743 61.0739C277.195 64.4306 279.281 67.243 281.912 69.6017C284.543 71.9605 287.537 73.7749 291.075 75.1357C294.522 76.4058 298.333 77.1316 302.324 77.1316Z" fill="#F36F25"/>
<path d="M379.619 91.1933C375.899 91.1933 372.361 90.7397 369.004 89.7418C365.648 88.8346 362.563 87.3831 359.751 85.4779C356.938 83.5728 354.489 81.214 352.402 78.4924C351.404 77.2223 350.497 75.7708 349.771 74.3192C348.32 71.5069 349.953 67.9687 354.217 66.1543C358.118 64.5213 362.745 64.7028 364.74 68.0595C365.829 69.9646 367.099 71.6883 368.732 73.2306C371.544 75.8615 375.264 77.1316 379.8 77.1316C381.524 77.1316 383.157 76.9501 384.699 76.4965C386.241 76.1336 387.693 75.4986 388.872 74.7728C390.142 74.0471 391.14 73.0491 391.866 71.8697C392.592 70.6904 392.955 69.3295 392.955 67.7873C392.955 66.3358 392.683 64.9749 392.138 63.7956C391.594 62.6162 390.596 61.5275 389.326 60.5296C387.965 59.5317 386.241 58.5337 384.155 57.5358C382.068 56.6286 379.437 55.6307 376.262 54.542L371 52.8183C368.641 52.0925 366.283 51.0946 363.924 49.8245C361.565 48.5544 359.388 47.1029 357.483 45.2885C355.578 43.5648 353.945 41.4782 352.765 39.1194C351.495 36.7607 350.86 34.039 350.86 31.0452C350.86 27.9607 351.495 25.0576 352.856 22.4267C354.217 19.7958 356.031 17.4371 358.481 15.4412C360.93 13.4453 363.833 11.8124 367.281 10.7237C370.728 9.54433 374.448 9 378.711 9C383.066 9 386.786 9.54433 389.961 10.633C393.136 11.7216 395.858 13.0825 398.035 14.7154C400.212 16.3484 402.027 18.1628 403.388 20.1587C405.293 22.9711 404.023 26.3277 401.301 28.1422C397.309 30.7731 392.138 29.7751 389.961 27.5071C389.235 26.7813 388.691 26.1463 387.693 25.2391C385.697 23.3339 382.612 22.6082 378.984 22.6082C375.446 22.6082 372.542 23.3339 370.184 24.8762C367.825 26.4185 366.646 28.3236 366.646 30.7731C366.646 33.1318 367.734 35.1277 370.002 36.7607C372.27 38.3936 375.808 40.0266 380.707 41.5689L386.151 43.2019C389.598 44.2905 392.773 45.5606 395.586 47.0122C398.398 48.4637 400.847 50.1874 402.934 52.0925C405.021 54.0884 406.563 56.3564 407.651 58.8059C408.74 61.3461 409.284 64.2492 409.284 67.5151C409.284 71.5976 408.377 75.1357 406.563 78.1295C404.748 81.1233 402.48 83.5728 399.668 85.3872C396.856 87.2923 393.68 88.7439 390.142 89.6511C386.423 90.649 382.975 91.1933 379.619 91.1933Z" fill="#F36F25"/>
<path d="M455.552 91.1933C449.111 91.1933 443.123 90.1047 437.68 88.0181C432.146 85.9315 427.429 83.0284 423.437 79.3089C419.445 75.5893 416.27 71.2347 414.002 66.245C411.734 61.2554 410.555 55.9028 410.555 50.1874C410.555 44.472 411.734 39.1194 414.002 34.1298C416.27 29.1401 419.445 24.7855 423.437 21.0659C427.429 17.3463 432.237 14.4433 437.68 12.3567C443.214 10.2701 449.111 9.18144 455.552 9.18144C461.993 9.18144 467.981 10.2701 473.424 12.3567C478.958 14.4433 483.676 17.3463 487.668 21.0659C491.659 24.7855 494.835 29.1401 497.103 34.1298C499.371 39.1194 500.55 44.472 500.55 50.1874C500.55 55.9028 499.371 61.2554 497.103 66.245C494.835 71.2347 491.659 75.5893 487.668 79.3089C483.676 83.0284 478.868 85.9315 473.424 88.0181C467.981 90.1047 461.993 91.1933 455.552 91.1933ZM455.552 77.1316C459.544 77.1316 463.354 76.4965 466.802 75.1357C470.34 73.7749 473.334 71.9605 475.964 69.6017C478.595 67.243 480.591 64.4306 482.134 61.0739C483.585 57.7172 484.402 54.0884 484.402 50.006C484.402 46.0142 483.676 42.2947 482.134 38.938C480.682 35.5813 478.595 32.7689 475.964 30.4102C473.334 28.0514 470.34 26.237 466.802 24.8762C463.264 23.5154 459.544 22.8803 455.552 22.8803C451.56 22.8803 447.75 23.5154 444.303 24.8762C440.765 26.237 437.771 28.0514 435.14 30.4102C432.509 32.7689 430.513 35.5813 428.971 38.938C427.519 42.2947 426.703 45.9235 426.703 50.006C426.703 53.9977 427.429 57.7172 428.971 61.0739C430.422 64.4306 432.509 67.243 435.14 69.6017C437.771 71.9605 440.765 73.7749 444.303 75.1357C447.841 76.4058 451.56 77.1316 455.552 77.1316Z" fill="#F36F25"/>
</g>
<defs>
<clipPath id="clip0_31_44">
<rect width="501" height="100" fill="white"/>
</clipPath>
</defs>
</svg>
