<svg width="155" height="30" viewBox="0 0 155 30" fill="none" xmlns="http://www.w3.org/2000/svg">
<g clip-path="url(#clip0_32_137)">
<path d="M0.335846 13.2449C0.491505 11.9808 0.802823 10.6978 1.28926 9.47143C1.79515 8.22619 2.47616 7.03754 3.31283 5.94323C4.16895 4.84892 5.16128 3.86782 6.25089 3.07539C7.34051 2.28296 8.50795 1.6226 9.73377 1.13204C10.9401 0.622624 12.2243 0.283011 13.5474 0.0943373C13.6642 0.0754699 13.7615 0.0754699 13.8782 0.0566025C12.9832 0.981105 12.5162 2.28296 12.7108 3.62254C12.847 4.62251 13.3334 5.47155 14.0339 6.13191C13.0026 6.32058 11.9908 6.67906 11.0374 7.20735C9.98672 7.79224 9.05276 8.58467 8.29392 9.56577C7.78803 10.2261 7.37942 10.9242 7.08756 11.6601C6.7957 12.3959 6.60113 13.1506 6.50384 13.9241C6.42601 14.6977 6.42601 15.4713 6.54276 16.2448C6.6595 17.0184 6.87353 17.7542 7.16539 18.4712C7.47671 19.1693 7.88532 19.8485 8.37175 20.49C8.87764 21.1126 9.46137 21.6786 10.1424 22.1692C11.1542 22.905 12.2632 23.4333 13.4501 23.6975C14.6565 23.9805 15.8434 24.0371 17.0108 23.8861C18.1783 23.7352 19.3068 23.339 20.377 22.7541C21.4277 22.1692 22.3422 21.3768 23.1205 20.3957C23.6264 19.7353 24.035 19.0372 24.3268 18.3014C24.6187 17.5655 24.8133 16.792 24.9105 16.0184C25.0078 15.2637 24.9884 14.4902 24.8716 13.7166C24.8327 13.4902 24.7354 13.1506 24.6187 12.7544C24.1322 11.2827 24.8716 9.67898 26.3504 9.07522C28.0237 8.37713 29.95 9.24503 30.5143 10.9242C30.7672 11.6789 30.9813 12.3959 31.0396 12.8676C31.2342 14.1505 31.2342 15.4335 31.098 16.6976C30.9423 17.9618 30.6116 19.2447 30.1251 20.4711C29.6192 21.6975 28.9382 22.8862 28.0821 23.9993C27.226 25.0936 26.2531 26.0559 25.1635 26.8672C24.0933 27.6785 22.9259 28.32 21.7001 28.8294C20.4743 29.3199 19.1901 29.6596 17.8864 29.8482C16.5633 30.0369 15.2402 30.0369 13.9366 29.9048C12.6135 29.7539 11.3098 29.4331 10.0451 28.9615C8.7609 28.4709 7.55454 27.8105 6.42601 26.9804C5.29748 26.1502 4.30515 25.2068 3.46849 24.1503C2.63182 23.1126 1.95081 21.9805 1.44492 20.7919C0.939025 19.6032 0.588792 18.358 0.394218 17.0939C0.199644 15.8109 0.180186 14.509 0.335846 13.2449Z" fill="#F36F25"/>
<path d="M17.1276 6.03757C18.8469 6.03757 20.2408 4.68601 20.2408 3.01878C20.2408 1.35156 18.8469 0 17.1276 0C15.4082 0 14.0144 1.35156 14.0144 3.01878C14.0144 4.68601 15.4082 6.03757 17.1276 6.03757Z" fill="white"/>
<path d="M49.7483 2.78165C52.4147 2.78165 54.8004 3.62535 56.8774 5.28555L57.8317 6.12926C57.944 6.26534 58.1124 6.40142 58.2808 6.61915C58.365 6.7008 58.5053 6.7008 58.5895 6.61915C58.7018 6.51029 58.8702 6.34699 59.0386 6.15647C61.4805 3.92473 64.2311 2.78165 67.2623 2.78165C69.8165 2.78165 72.1461 3.59814 74.2511 5.2039C76.2439 6.72802 77.5631 8.63316 78.2928 10.8921C78.2928 10.8921 78.2928 10.8921 78.2928 10.9193C78.4612 11.4092 78.7419 12.7156 78.7419 13.396V24.8541C78.7419 26.2149 77.4789 27.3308 75.9352 27.3308C74.3915 27.3308 73.1284 26.2149 73.1284 24.8541V13.0694C73.1284 11.763 72.5671 10.5383 71.5847 9.58573L71.5005 9.50408C69.199 7.29956 65.2696 7.29956 62.968 9.47687L62.8558 9.58573C61.8453 10.5383 61.2559 11.8175 61.2559 13.1239V24.7997C61.2559 26.2149 59.9648 27.358 58.365 27.358C56.8213 27.358 55.5582 26.2421 55.5582 24.8813V13.1239C55.5582 11.8175 54.9969 10.5655 53.9865 9.61295C51.6569 7.38121 47.6713 7.40842 45.3698 9.66738L45.2014 9.83068C44.2471 10.7833 43.7138 12.008 43.7138 13.2872V24.8813C43.7138 26.2421 42.4508 27.358 40.907 27.358C39.3633 27.358 38.1003 26.2421 38.1003 24.8813V13.396C38.1003 10.0212 40.065 7.29956 42.142 5.55771C44.3874 3.707 46.8854 2.78165 49.7483 2.78165Z" fill="#F36F25"/>
<path d="M93.5335 27.358C91.5407 27.358 89.6882 27.0314 88.0042 26.4054C86.2921 25.7795 84.8325 24.9085 83.5976 23.7927C82.3626 22.6768 81.3803 21.3704 80.6786 19.8735C79.9769 18.3766 79.612 16.7708 79.612 15.0562C79.612 13.3416 79.9769 11.7358 80.6786 10.2389C81.3803 8.74203 82.3626 7.43564 83.5976 6.31977C84.8325 5.2039 86.3201 4.33298 88.0042 3.707C89.7163 3.08103 91.5407 2.75443 93.5335 2.75443C95.5262 2.75443 97.3787 3.08103 99.0627 3.707C100.775 4.33298 102.234 5.2039 103.469 6.31977C104.704 7.43564 105.687 8.74203 106.388 10.2389C107.09 11.7358 107.455 13.3416 107.455 15.0562C107.455 16.7708 107.09 18.3766 106.388 19.8735C105.687 21.3704 104.704 22.6768 103.469 23.7927C102.234 24.9085 100.747 25.7795 99.0627 26.4054C97.3787 27.0314 95.5262 27.358 93.5335 27.358ZM93.5335 23.1395C94.7684 23.1395 95.9473 22.949 97.0138 22.5407C98.1084 22.1325 99.0347 21.5881 99.8486 20.8805C100.663 20.1729 101.28 19.3292 101.757 18.3222C102.206 17.3152 102.459 16.2265 102.459 15.0018C102.459 13.8043 102.234 12.6884 101.757 11.6814C101.308 10.6744 100.663 9.83068 99.8486 9.12306C99.0347 8.41543 98.1084 7.8711 97.0138 7.46286C95.9192 7.05461 94.7684 6.8641 93.5335 6.8641C92.2985 6.8641 91.1197 7.05461 90.0531 7.46286C88.9585 7.8711 88.0322 8.41543 87.2183 9.12306C86.4043 9.83068 85.7868 10.6744 85.3097 11.6814C84.8606 12.6884 84.608 13.7771 84.608 15.0018C84.608 16.1993 84.8326 17.3152 85.3097 18.3222C85.7588 19.3292 86.4043 20.1729 87.2183 20.8805C88.0322 21.5881 88.9585 22.1325 90.0531 22.5407C91.1197 22.9217 92.2985 23.1395 93.5335 23.1395Z" fill="#F36F25"/>
<path d="M117.447 27.358C116.296 27.358 115.202 27.2219 114.163 26.9225C113.125 26.6504 112.17 26.2149 111.3 25.6434C110.43 25.0718 109.672 24.3642 109.027 23.5477C108.718 23.1667 108.437 22.7312 108.213 22.2958C107.764 21.4521 108.269 20.3906 109.588 19.8463C110.795 19.3564 112.226 19.4108 112.844 20.4178C113.181 20.9894 113.574 21.5065 114.079 21.9692C114.949 22.7584 116.1 23.1395 117.503 23.1395C118.036 23.1395 118.542 23.085 119.019 22.949C119.496 22.8401 119.945 22.6496 120.31 22.4318C120.703 22.2141 121.011 21.9147 121.236 21.5609C121.461 21.2071 121.573 20.7989 121.573 20.3362C121.573 19.9007 121.489 19.4925 121.32 19.1387C121.152 18.7849 120.843 18.4583 120.45 18.1589C120.029 17.8595 119.496 17.5601 118.85 17.2607C118.205 16.9886 117.391 16.6892 116.408 16.3626L114.78 15.8455C114.051 15.6278 113.321 15.3284 112.591 14.9473C111.861 14.5663 111.188 14.1309 110.598 13.5865C110.009 13.0694 109.504 12.4434 109.139 11.7358C108.746 11.0282 108.55 10.2117 108.55 9.31357C108.55 8.38821 108.746 7.51729 109.167 6.72802C109.588 5.93874 110.149 5.23112 110.907 4.63236C111.665 4.0336 112.563 3.5437 113.63 3.21711C114.696 2.8633 115.847 2.7 117.166 2.7C118.513 2.7 119.664 2.86329 120.647 3.18989C121.629 3.51649 122.471 3.92473 123.145 4.41463C123.818 4.90452 124.38 5.44885 124.801 6.04761C125.39 6.89131 124.997 7.89832 124.155 8.44264C122.92 9.23192 121.32 8.93254 120.647 8.25213C120.422 8.0344 120.254 7.84389 119.945 7.57172C119.327 7.00018 118.373 6.78245 117.25 6.78245C116.156 6.78245 115.258 7.00018 114.528 7.46286C113.798 7.92553 113.433 8.49708 113.433 9.23192C113.433 9.93954 113.77 10.5383 114.472 11.0282C115.173 11.5181 116.268 12.008 117.784 12.4707L119.468 12.9606C120.534 13.2872 121.517 13.6682 122.387 14.1036C123.257 14.5391 124.015 15.0562 124.66 15.6278C125.306 16.2265 125.783 16.9069 126.12 17.6418C126.457 18.4038 126.625 19.2747 126.625 20.2545C126.625 21.4793 126.344 22.5407 125.783 23.4388C125.222 24.337 124.52 25.0718 123.65 25.6162C122.78 26.1877 121.797 26.6232 120.703 26.8953C119.552 27.1947 118.485 27.358 117.447 27.358Z" fill="#F36F25"/>
<path d="M140.939 27.358C138.947 27.358 137.094 27.0314 135.41 26.4054C133.698 25.7795 132.238 24.9085 131.003 23.7927C129.768 22.6768 128.786 21.3704 128.084 19.8735C127.383 18.3766 127.018 16.7708 127.018 15.0562C127.018 13.3416 127.383 11.7358 128.084 10.2389C128.786 8.74203 129.768 7.43564 131.003 6.31977C132.238 5.2039 133.726 4.33298 135.41 3.707C137.122 3.08103 138.947 2.75443 140.939 2.75443C142.932 2.75443 144.785 3.08103 146.469 3.707C148.181 4.33298 149.64 5.2039 150.875 6.31977C152.11 7.43564 153.093 8.74203 153.794 10.2389C154.496 11.7358 154.861 13.3416 154.861 15.0562C154.861 16.7708 154.496 18.3766 153.794 19.8735C153.093 21.3704 152.11 22.6768 150.875 23.7927C149.64 24.9085 148.153 25.7795 146.469 26.4054C144.785 27.0314 142.932 27.358 140.939 27.358ZM140.939 23.1395C142.174 23.1395 143.353 22.949 144.42 22.5407C145.514 22.1325 146.441 21.5881 147.254 20.8805C148.068 20.1729 148.686 19.3292 149.163 18.3222C149.612 17.3152 149.865 16.2265 149.865 15.0018C149.865 13.8043 149.64 12.6884 149.163 11.6814C148.714 10.6744 148.068 9.83068 147.254 9.12306C146.441 8.41543 145.514 7.8711 144.42 7.46286C143.325 7.05461 142.174 6.8641 140.939 6.8641C139.704 6.8641 138.526 7.05461 137.459 7.46286C136.364 7.8711 135.438 8.41543 134.624 9.12306C133.81 9.83068 133.193 10.6744 132.716 11.6814C132.266 12.6884 132.014 13.7771 132.014 15.0018C132.014 16.1993 132.238 17.3152 132.716 18.3222C133.165 19.3292 133.81 20.1729 134.624 20.8805C135.438 21.5881 136.364 22.1325 137.459 22.5407C138.554 22.9217 139.704 23.1395 140.939 23.1395Z" fill="#F36F25"/>
</g>
<defs>
<clipPath id="clip0_32_137">
<rect width="155" height="30" fill="white"/>
</clipPath>
</defs>
</svg>
