<svg width="1440" height="71" viewBox="0 0 1440 71" fill="none" xmlns="http://www.w3.org/2000/svg">
<rect width="1440" height="71" fill="#1E1E1E"/>
<mask id="path-1-inside-1_13_4105" fill="white">
<path d="M0 0H1440V71H0V0Z"/>
</mask>
<path d="M0 0H1440V71H0V0Z" fill="white"/>
<path d="M1440 71V70H0V71V72H1440V71Z" fill="#DEE2E6" mask="url(#path-1-inside-1_13_4105)"/>
<g clip-path="url(#clip0_13_4105)">
<path d="M32.3358 33.7449C32.4915 32.4808 32.8028 31.1978 33.2893 29.9714C33.7952 28.7262 34.4762 27.5375 35.3128 26.4432C36.169 25.3489 37.1613 24.3678 38.2509 23.5754C39.3405 22.783 40.508 22.1226 41.7338 21.632C42.9401 21.1226 44.2243 20.783 45.5474 20.5943C45.6642 20.5755 45.7615 20.5755 45.8782 20.5566C44.9832 21.4811 44.5162 22.783 44.7108 24.1225C44.847 25.1225 45.3334 25.9715 46.0339 26.6319C45.0026 26.8206 43.9908 27.1791 43.0374 27.7073C41.9867 28.2922 41.0528 29.0847 40.2939 30.0658C39.788 30.7261 39.3794 31.4242 39.0876 32.1601C38.7957 32.8959 38.6011 33.6506 38.5038 34.4241C38.426 35.1977 38.426 35.9713 38.5428 36.7448C38.6595 37.5184 38.8735 38.2542 39.1654 38.9712C39.4767 39.6693 39.8853 40.3485 40.3718 40.99C40.8776 41.6126 41.4614 42.1786 42.1424 42.6692C43.1542 43.405 44.2632 43.9333 45.4501 44.1975C46.6565 44.4805 47.8434 44.5371 49.0108 44.3861C50.1783 44.2352 51.3068 43.839 52.377 43.2541C53.4277 42.6692 54.3422 41.8768 55.1205 40.8957C55.6264 40.2353 56.035 39.5372 56.3268 38.8014C56.6187 38.0655 56.8133 37.292 56.9105 36.5184C57.0078 35.7637 56.9884 34.9902 56.8716 34.2166C56.8327 33.9902 56.7354 33.6506 56.6187 33.2544C56.1322 31.7827 56.8716 30.179 58.3504 29.5752C60.0237 28.8771 61.95 29.745 62.5143 31.4242C62.7672 32.1789 62.9813 32.8959 63.0396 33.3676C63.2342 34.6506 63.2342 35.9335 63.098 37.1976C62.9423 38.4618 62.6116 39.7447 62.1251 40.9711C61.6192 42.1975 60.9382 43.3862 60.0821 44.4993C59.226 45.5936 58.2531 46.5559 57.1635 47.3672C56.0933 48.1785 54.9259 48.82 53.7001 49.3294C52.4743 49.8199 51.1901 50.1596 49.8864 50.3482C48.5633 50.5369 47.2402 50.5369 45.9366 50.4048C44.6135 50.2539 43.3098 49.9331 42.0451 49.4615C40.7609 48.9709 39.5545 48.3105 38.426 47.4804C37.2975 46.6502 36.3052 45.7068 35.4685 44.6503C34.6318 43.6126 33.9508 42.4805 33.4449 41.2919C32.939 40.1032 32.5888 38.858 32.3942 37.5939C32.1996 36.3109 32.1802 35.009 32.3358 33.7449Z" fill="#F36F25"/>
<path d="M49.1276 26.5376C50.8469 26.5376 52.2408 25.186 52.2408 23.5188C52.2408 21.8516 50.8469 20.5 49.1276 20.5C47.4082 20.5 46.0144 21.8516 46.0144 23.5188C46.0144 25.186 47.4082 26.5376 49.1276 26.5376Z" fill="#010101"/>
<path d="M81.7483 23.2817C84.4147 23.2817 86.8004 24.1254 88.8774 25.7856L89.8317 26.6293C89.944 26.7653 90.1124 26.9014 90.2808 27.1192C90.365 27.2008 90.5053 27.2008 90.5895 27.1192C90.7018 27.0103 90.8702 26.847 91.0386 26.6565C93.4805 24.4247 96.2311 23.2817 99.2624 23.2817C101.816 23.2817 104.146 24.0981 106.251 25.7039C108.244 27.228 109.563 29.1332 110.293 31.3921C110.293 31.3921 110.293 31.3921 110.293 31.4193C110.461 31.9092 110.742 33.2156 110.742 33.896V45.3541C110.742 46.7149 109.479 47.8308 107.935 47.8308C106.391 47.8308 105.128 46.7149 105.128 45.3541V33.5694C105.128 32.263 104.567 31.0383 103.585 30.0857L103.501 30.0041C101.199 27.7996 97.2696 27.7996 94.968 29.9769L94.8558 30.0857C93.8453 31.0383 93.2559 32.3175 93.2559 33.6239V45.2997C93.2559 46.7149 91.9648 47.858 90.365 47.858C88.8213 47.858 87.5582 46.7421 87.5582 45.3813V33.6239C87.5582 32.3175 86.9969 31.0655 85.9865 30.113C83.6569 27.8812 79.6713 27.9084 77.3698 30.1674L77.2014 30.3307C76.2471 31.2833 75.7138 32.508 75.7138 33.7872V45.3813C75.7138 46.7421 74.4508 47.858 72.9071 47.858C71.3633 47.858 70.1003 46.7421 70.1003 45.3813V33.896C70.1003 30.5212 72.065 27.7996 74.142 26.0577C76.3874 24.207 78.8854 23.2817 81.7483 23.2817Z" fill="#F36F25"/>
<path d="M125.533 47.858C123.541 47.858 121.688 47.5314 120.004 46.9054C118.292 46.2795 116.833 45.4085 115.598 44.2927C114.363 43.1768 113.38 41.8704 112.679 40.3735C111.977 38.8766 111.612 37.2708 111.612 35.5562C111.612 33.8416 111.977 32.2358 112.679 30.7389C113.38 29.242 114.363 27.9356 115.598 26.8198C116.833 25.7039 118.32 24.833 120.004 24.207C121.716 23.581 123.541 23.2544 125.533 23.2544C127.526 23.2544 129.379 23.581 131.063 24.207C132.775 24.833 134.234 25.7039 135.469 26.8198C136.704 27.9356 137.687 29.242 138.388 30.7389C139.09 32.2358 139.455 33.8416 139.455 35.5562C139.455 37.2708 139.09 38.8766 138.388 40.3735C137.687 41.8704 136.704 43.1768 135.469 44.2927C134.234 45.4085 132.747 46.2795 131.063 46.9054C129.379 47.5314 127.526 47.858 125.533 47.858ZM125.533 43.6395C126.768 43.6395 127.947 43.449 129.014 43.0407C130.108 42.6325 131.035 42.0881 131.849 41.3805C132.663 40.6729 133.28 39.8292 133.757 38.8222C134.206 37.8152 134.459 36.7265 134.459 35.5018C134.459 34.3043 134.234 33.1884 133.757 32.1814C133.308 31.1744 132.663 30.3307 131.849 29.6231C131.035 28.9154 130.108 28.3711 129.014 27.9629C127.919 27.5546 126.768 27.3641 125.533 27.3641C124.299 27.3641 123.12 27.5546 122.053 27.9629C120.958 28.3711 120.032 28.9154 119.218 29.6231C118.404 30.3307 117.787 31.1744 117.31 32.1814C116.861 33.1884 116.608 34.2771 116.608 35.5018C116.608 36.6993 116.833 37.8152 117.31 38.8222C117.759 39.8292 118.404 40.6729 119.218 41.3805C120.032 42.0881 120.958 42.6325 122.053 43.0407C123.12 43.4217 124.299 43.6395 125.533 43.6395Z" fill="#F36F25"/>
<path d="M149.447 47.858C148.296 47.858 147.202 47.7219 146.163 47.4225C145.125 47.1504 144.17 46.7149 143.3 46.1434C142.43 45.5718 141.672 44.8642 141.027 44.0477C140.718 43.6667 140.437 43.2312 140.213 42.7958C139.764 41.9521 140.269 40.8906 141.588 40.3463C142.795 39.8564 144.226 39.9108 144.844 40.9178C145.181 41.4894 145.574 42.0065 146.079 42.4692C146.949 43.2584 148.1 43.6395 149.503 43.6395C150.036 43.6395 150.542 43.585 151.019 43.449C151.496 43.3401 151.945 43.1496 152.31 42.9318C152.703 42.7141 153.011 42.4147 153.236 42.0609C153.461 41.7071 153.573 41.2989 153.573 40.8362C153.573 40.4007 153.489 39.9925 153.32 39.6387C153.152 39.2849 152.843 38.9583 152.45 38.6589C152.029 38.3595 151.496 38.0601 150.85 37.7607C150.205 37.4886 149.391 37.1892 148.408 36.8626L146.781 36.3455C146.051 36.1278 145.321 35.8284 144.591 35.4474C143.861 35.0663 143.188 34.6309 142.598 34.0865C142.009 33.5694 141.504 32.9435 141.139 32.2358C140.746 31.5282 140.55 30.7117 140.55 29.8136C140.55 28.8882 140.746 28.0173 141.167 27.228C141.588 26.4387 142.149 25.7311 142.907 25.1324C143.665 24.5336 144.563 24.0437 145.63 23.7171C146.696 23.3633 147.847 23.2 149.166 23.2C150.513 23.2 151.664 23.3633 152.647 23.6899C153.629 24.0165 154.471 24.4247 155.145 24.9146C155.818 25.4045 156.38 25.9489 156.801 26.5476C157.39 27.3913 156.997 28.3983 156.155 28.9427C154.92 29.7319 153.32 29.4325 152.647 28.7521C152.422 28.5344 152.254 28.3439 151.945 28.0717C151.327 27.5002 150.373 27.2825 149.25 27.2825C148.156 27.2825 147.258 27.5002 146.528 27.9629C145.798 28.4255 145.433 28.9971 145.433 29.7319C145.433 30.4395 145.77 31.0383 146.472 31.5282C147.173 32.0181 148.268 32.508 149.784 32.9707L151.468 33.4606C152.534 33.7872 153.517 34.1682 154.387 34.6036C155.257 35.0391 156.015 35.5562 156.66 36.1278C157.306 36.7265 157.783 37.4069 158.12 38.1418C158.457 38.9038 158.625 39.7748 158.625 40.7545C158.625 41.9793 158.344 43.0407 157.783 43.9389C157.222 44.837 156.52 45.5718 155.65 46.1162C154.78 46.6877 153.797 47.1232 152.703 47.3953C151.552 47.6947 150.485 47.858 149.447 47.858Z" fill="#F36F25"/>
<path d="M172.939 47.858C170.947 47.858 169.094 47.5314 167.41 46.9054C165.698 46.2795 164.238 45.4085 163.003 44.2927C161.768 43.1768 160.786 41.8704 160.084 40.3735C159.383 38.8766 159.018 37.2708 159.018 35.5562C159.018 33.8416 159.383 32.2358 160.084 30.7389C160.786 29.242 161.768 27.9356 163.003 26.8198C164.238 25.7039 165.726 24.833 167.41 24.207C169.122 23.581 170.947 23.2544 172.939 23.2544C174.932 23.2544 176.785 23.581 178.469 24.207C180.181 24.833 181.64 25.7039 182.875 26.8198C184.11 27.9356 185.093 29.242 185.794 30.7389C186.496 32.2358 186.861 33.8416 186.861 35.5562C186.861 37.2708 186.496 38.8766 185.794 40.3735C185.093 41.8704 184.11 43.1768 182.875 44.2927C181.64 45.4085 180.153 46.2795 178.469 46.9054C176.785 47.5314 174.932 47.858 172.939 47.858ZM172.939 43.6395C174.174 43.6395 175.353 43.449 176.42 43.0407C177.514 42.6325 178.441 42.0881 179.254 41.3805C180.068 40.6729 180.686 39.8292 181.163 38.8222C181.612 37.8152 181.865 36.7265 181.865 35.5018C181.865 34.3043 181.64 33.1884 181.163 32.1814C180.714 31.1744 180.068 30.3307 179.254 29.6231C178.441 28.9154 177.514 28.3711 176.42 27.9629C175.325 27.5546 174.174 27.3641 172.939 27.3641C171.704 27.3641 170.526 27.5546 169.459 27.9629C168.364 28.3711 167.438 28.9154 166.624 29.6231C165.81 30.3307 165.193 31.1744 164.716 32.1814C164.266 33.1884 164.014 34.2771 164.014 35.5018C164.014 36.6993 164.238 37.8152 164.716 38.8222C165.165 39.8292 165.81 40.6729 166.624 41.3805C167.438 42.0881 168.364 42.6325 169.459 43.0407C170.554 43.4217 171.704 43.6395 172.939 43.6395Z" fill="#F36F25"/>
</g>
<path d="M603.42 41.5L608.46 30.3H610.508L615.564 41.5H613.388L609.052 31.404H609.884L605.564 41.5H603.42ZM605.74 38.908L606.3 37.276H612.348L612.908 38.908H605.74ZM621.532 41.612C620.807 41.612 620.162 41.452 619.596 41.132C619.031 40.812 618.583 40.332 618.252 39.692C617.932 39.0413 617.772 38.22 617.772 37.228C617.772 36.2253 617.938 35.404 618.268 34.764C618.61 34.124 619.063 33.6493 619.628 33.34C620.204 33.02 620.839 32.86 621.532 32.86C622.375 32.86 623.116 33.0413 623.756 33.404C624.407 33.7667 624.919 34.2733 625.292 34.924C625.676 35.5747 625.868 36.3427 625.868 37.228C625.868 38.1133 625.676 38.8813 625.292 39.532C624.919 40.1827 624.407 40.6947 623.756 41.068C623.116 41.4307 622.375 41.612 621.532 41.612ZM616.796 41.5V29.628H618.796V34.94L618.636 37.212L618.7 39.484V41.5H616.796ZM621.308 39.9C621.788 39.9 622.215 39.7933 622.588 39.58C622.972 39.3667 623.276 39.0573 623.5 38.652C623.724 38.2467 623.836 37.772 623.836 37.228C623.836 36.6733 623.724 36.1987 623.5 35.804C623.276 35.3987 622.972 35.0893 622.588 34.876C622.215 34.6627 621.788 34.556 621.308 34.556C620.828 34.556 620.396 34.6627 620.012 34.876C619.628 35.0893 619.324 35.3987 619.1 35.804C618.876 36.1987 618.764 36.6733 618.764 37.228C618.764 37.772 618.876 38.2467 619.1 38.652C619.324 39.0573 619.628 39.3667 620.012 39.58C620.396 39.7933 620.828 39.9 621.308 39.9ZM631.605 41.612C630.73 41.612 629.952 41.4253 629.269 41.052C628.586 40.668 628.048 40.1453 627.653 39.484C627.258 38.8227 627.061 38.0707 627.061 37.228C627.061 36.3747 627.258 35.6227 627.653 34.972C628.048 34.3107 628.586 33.7933 629.269 33.42C629.952 33.0467 630.73 32.86 631.605 32.86C632.49 32.86 633.274 33.0467 633.957 33.42C634.65 33.7933 635.189 34.3053 635.573 34.956C635.968 35.6067 636.165 36.364 636.165 37.228C636.165 38.0707 635.968 38.8227 635.573 39.484C635.189 40.1453 634.65 40.668 633.957 41.052C633.274 41.4253 632.49 41.612 631.605 41.612ZM631.605 39.9C632.096 39.9 632.533 39.7933 632.917 39.58C633.301 39.3667 633.6 39.0573 633.813 38.652C634.037 38.2467 634.149 37.772 634.149 37.228C634.149 36.6733 634.037 36.1987 633.813 35.804C633.6 35.3987 633.301 35.0893 632.917 34.876C632.533 34.6627 632.101 34.556 631.621 34.556C631.13 34.556 630.693 34.6627 630.309 34.876C629.936 35.0893 629.637 35.3987 629.413 35.804C629.189 36.1987 629.077 36.6733 629.077 37.228C629.077 37.772 629.189 38.2467 629.413 38.652C629.637 39.0573 629.936 39.3667 630.309 39.58C630.693 39.7933 631.125 39.9 631.605 39.9ZM641.694 41.612C640.968 41.612 640.328 41.4787 639.774 41.212C639.219 40.9347 638.787 40.5187 638.478 39.964C638.168 39.3987 638.014 38.6893 638.014 37.836V32.956H640.014V37.564C640.014 38.332 640.184 38.908 640.526 39.292C640.878 39.6653 641.374 39.852 642.014 39.852C642.483 39.852 642.888 39.756 643.23 39.564C643.582 39.372 643.854 39.084 644.046 38.7C644.248 38.316 644.35 37.8413 644.35 37.276V32.956H646.35V41.5H644.446V39.196L644.782 39.9C644.494 40.4547 644.072 40.8813 643.518 41.18C642.963 41.468 642.355 41.612 641.694 41.612ZM652.184 41.612C651.246 41.612 650.52 41.372 650.008 40.892C649.496 40.4013 649.24 39.6813 649.24 38.732V31.068H651.24V38.684C651.24 39.0893 651.342 39.404 651.544 39.628C651.758 39.852 652.051 39.964 652.424 39.964C652.872 39.964 653.246 39.8467 653.544 39.612L654.104 41.036C653.87 41.228 653.582 41.372 653.24 41.468C652.899 41.564 652.547 41.612 652.184 41.612ZM647.832 34.62V33.02H653.528V34.62H647.832ZM665.179 41.66C663.643 41.66 662.438 41.228 661.563 40.364C660.699 39.5 660.267 38.252 660.267 36.62V30.3H662.347V36.54C662.347 37.692 662.593 38.5293 663.083 39.052C663.585 39.5747 664.289 39.836 665.195 39.836C666.102 39.836 666.801 39.5747 667.291 39.052C667.782 38.5293 668.027 37.692 668.027 36.54V30.3H670.075V36.62C670.075 38.252 669.638 39.5 668.763 40.364C667.899 41.228 666.705 41.66 665.179 41.66ZM675.436 41.612C674.722 41.612 674.034 41.5213 673.372 41.34C672.722 41.148 672.204 40.9187 671.82 40.652L672.588 39.132C672.972 39.3773 673.431 39.58 673.964 39.74C674.498 39.9 675.031 39.98 675.564 39.98C676.194 39.98 676.647 39.8947 676.924 39.724C677.212 39.5533 677.356 39.324 677.356 39.036C677.356 38.8013 677.26 38.6253 677.068 38.508C676.876 38.38 676.626 38.284 676.316 38.22C676.007 38.156 675.66 38.0973 675.276 38.044C674.903 37.9907 674.524 37.9213 674.14 37.836C673.767 37.74 673.426 37.6067 673.116 37.436C672.807 37.2547 672.556 37.0147 672.364 36.716C672.172 36.4173 672.076 36.0227 672.076 35.532C672.076 34.988 672.231 34.5187 672.54 34.124C672.85 33.7187 673.282 33.4093 673.836 33.196C674.402 32.972 675.068 32.86 675.836 32.86C676.412 32.86 676.994 32.924 677.58 33.052C678.167 33.18 678.652 33.3613 679.036 33.596L678.268 35.116C677.863 34.8707 677.452 34.7053 677.036 34.62C676.631 34.524 676.226 34.476 675.82 34.476C675.212 34.476 674.759 34.5667 674.46 34.748C674.172 34.9293 674.028 35.1587 674.028 35.436C674.028 35.692 674.124 35.884 674.316 36.012C674.508 36.14 674.759 36.2413 675.068 36.316C675.378 36.3907 675.719 36.4547 676.092 36.508C676.476 36.5507 676.855 36.62 677.228 36.716C677.602 36.812 677.943 36.9453 678.252 37.116C678.572 37.276 678.828 37.5053 679.02 37.804C679.212 38.1027 679.308 38.492 679.308 38.972C679.308 39.5053 679.148 39.9693 678.828 40.364C678.519 40.7587 678.076 41.068 677.5 41.292C676.924 41.5053 676.236 41.612 675.436 41.612Z" fill="#2E2E2E"/>
<path d="M717.476 41.66C716.601 41.66 715.764 41.5373 714.964 41.292C714.164 41.036 713.529 40.7107 713.06 40.316L713.78 38.7C714.228 39.052 714.783 39.3453 715.444 39.58C716.105 39.8147 716.783 39.932 717.476 39.932C718.063 39.932 718.537 39.868 718.9 39.74C719.263 39.612 719.529 39.4413 719.7 39.228C719.871 39.004 719.956 38.7533 719.956 38.476C719.956 38.1347 719.833 37.8627 719.588 37.66C719.343 37.4467 719.023 37.2813 718.628 37.164C718.244 37.036 717.812 36.9187 717.332 36.812C716.863 36.7053 716.388 36.5827 715.908 36.444C715.439 36.2947 715.007 36.108 714.612 35.884C714.228 35.6493 713.913 35.34 713.668 34.956C713.423 34.572 713.3 34.0813 713.3 33.484C713.3 32.876 713.46 32.3213 713.78 31.82C714.111 31.308 714.607 30.9027 715.268 30.604C715.94 30.2947 716.788 30.14 717.812 30.14C718.484 30.14 719.151 30.2253 719.812 30.396C720.473 30.5667 721.049 30.812 721.54 31.132L720.884 32.748C720.383 32.4493 719.865 32.2307 719.332 32.092C718.799 31.9427 718.287 31.868 717.796 31.868C717.22 31.868 716.751 31.9373 716.388 32.076C716.036 32.2147 715.775 32.396 715.604 32.62C715.444 32.844 715.364 33.1 715.364 33.388C715.364 33.7293 715.481 34.0067 715.716 34.22C715.961 34.4227 716.276 34.5827 716.66 34.7C717.055 34.8173 717.492 34.9347 717.972 35.052C718.452 35.1587 718.927 35.2813 719.396 35.42C719.876 35.5587 720.308 35.74 720.692 35.964C721.087 36.188 721.401 36.492 721.636 36.876C721.881 37.26 722.004 37.7453 722.004 38.332C722.004 38.9293 721.839 39.484 721.508 39.996C721.188 40.4973 720.692 40.9027 720.02 41.212C719.348 41.5107 718.5 41.66 717.476 41.66ZM727.891 41.612C726.941 41.612 726.109 41.4253 725.395 41.052C724.691 40.668 724.141 40.1453 723.747 39.484C723.363 38.8227 723.171 38.0707 723.171 37.228C723.171 36.3747 723.357 35.6227 723.731 34.972C724.115 34.3107 724.637 33.7933 725.299 33.42C725.971 33.0467 726.733 32.86 727.587 32.86C728.419 32.86 729.16 33.0413 729.811 33.404C730.461 33.7667 730.973 34.2787 731.347 34.94C731.72 35.6013 731.907 36.38 731.907 37.276C731.907 37.3613 731.901 37.4573 731.891 37.564C731.891 37.6707 731.885 37.772 731.875 37.868H724.755V36.54H730.819L730.035 36.956C730.045 36.4653 729.944 36.0333 729.731 35.66C729.517 35.2867 729.224 34.9933 728.851 34.78C728.488 34.5667 728.067 34.46 727.587 34.46C727.096 34.46 726.664 34.5667 726.291 34.78C725.928 34.9933 725.64 35.292 725.427 35.676C725.224 36.0493 725.123 36.492 725.123 37.004V37.324C725.123 37.836 725.24 38.2893 725.475 38.684C725.709 39.0787 726.04 39.3827 726.467 39.596C726.893 39.8093 727.384 39.916 727.939 39.916C728.419 39.916 728.851 39.8413 729.235 39.692C729.619 39.5427 729.96 39.308 730.259 38.988L731.331 40.22C730.947 40.668 730.461 41.0147 729.875 41.26C729.299 41.4947 728.637 41.612 727.891 41.612ZM733.828 41.5V32.956H735.732V35.308L735.508 34.62C735.764 34.044 736.164 33.6067 736.708 33.308C737.262 33.0093 737.95 32.86 738.772 32.86V34.764C738.686 34.7427 738.606 34.732 738.532 34.732C738.457 34.7213 738.382 34.716 738.308 34.716C737.55 34.716 736.948 34.94 736.5 35.388C736.052 35.8253 735.828 36.4813 735.828 37.356V41.5H733.828ZM743.053 41.5L739.389 32.956H741.469L744.621 40.492H743.597L746.861 32.956H748.781L745.117 41.5H743.053ZM750.031 41.5V32.956H752.031V41.5H750.031ZM751.039 31.548C750.665 31.548 750.356 31.4307 750.111 31.196C749.876 30.9613 749.759 30.6787 749.759 30.348C749.759 30.0067 749.876 29.724 750.111 29.5C750.356 29.2653 750.665 29.148 751.039 29.148C751.412 29.148 751.716 29.26 751.951 29.484C752.196 29.6973 752.319 29.9693 752.319 30.3C752.319 30.652 752.201 30.9507 751.967 31.196C751.732 31.4307 751.423 31.548 751.039 31.548ZM758.576 41.612C757.68 41.612 756.88 41.4253 756.176 41.052C755.482 40.668 754.938 40.1453 754.544 39.484C754.149 38.8227 753.952 38.0707 753.952 37.228C753.952 36.3747 754.149 35.6227 754.544 34.972C754.938 34.3107 755.482 33.7933 756.176 33.42C756.88 33.0467 757.68 32.86 758.576 32.86C759.408 32.86 760.138 33.0307 760.768 33.372C761.408 33.7027 761.893 34.1933 762.224 34.844L760.688 35.74C760.432 35.3347 760.117 35.036 759.744 34.844C759.381 34.652 758.986 34.556 758.56 34.556C758.069 34.556 757.626 34.6627 757.232 34.876C756.837 35.0893 756.528 35.3987 756.304 35.804C756.08 36.1987 755.968 36.6733 755.968 37.228C755.968 37.7827 756.08 38.2627 756.304 38.668C756.528 39.0627 756.837 39.3667 757.232 39.58C757.626 39.7933 758.069 39.9 758.56 39.9C758.986 39.9 759.381 39.804 759.744 39.612C760.117 39.42 760.432 39.1213 760.688 38.716L762.224 39.612C761.893 40.252 761.408 40.748 760.768 41.1C760.138 41.4413 759.408 41.612 758.576 41.612ZM767.844 41.612C766.894 41.612 766.062 41.4253 765.348 41.052C764.644 40.668 764.094 40.1453 763.7 39.484C763.316 38.8227 763.124 38.0707 763.124 37.228C763.124 36.3747 763.31 35.6227 763.684 34.972C764.068 34.3107 764.59 33.7933 765.252 33.42C765.924 33.0467 766.686 32.86 767.54 32.86C768.372 32.86 769.113 33.0413 769.764 33.404C770.414 33.7667 770.926 34.2787 771.3 34.94C771.673 35.6013 771.86 36.38 771.86 37.276C771.86 37.3613 771.854 37.4573 771.844 37.564C771.844 37.6707 771.838 37.772 771.828 37.868H764.708V36.54H770.772L769.988 36.956C769.998 36.4653 769.897 36.0333 769.684 35.66C769.47 35.2867 769.177 34.9933 768.804 34.78C768.441 34.5667 768.02 34.46 767.54 34.46C767.049 34.46 766.617 34.5667 766.244 34.78C765.881 34.9933 765.593 35.292 765.38 35.676C765.177 36.0493 765.076 36.492 765.076 37.004V37.324C765.076 37.836 765.193 38.2893 765.428 38.684C765.662 39.0787 765.993 39.3827 766.42 39.596C766.846 39.8093 767.337 39.916 767.892 39.916C768.372 39.916 768.804 39.8413 769.188 39.692C769.572 39.5427 769.913 39.308 770.212 38.988L771.284 40.22C770.9 40.668 770.414 41.0147 769.828 41.26C769.252 41.4947 768.59 41.612 767.844 41.612ZM776.421 41.612C775.706 41.612 775.018 41.5213 774.357 41.34C773.706 41.148 773.189 40.9187 772.805 40.652L773.573 39.132C773.957 39.3773 774.415 39.58 774.949 39.74C775.482 39.9 776.015 39.98 776.549 39.98C777.178 39.98 777.631 39.8947 777.909 39.724C778.197 39.5533 778.341 39.324 778.341 39.036C778.341 38.8013 778.245 38.6253 778.053 38.508C777.861 38.38 777.61 38.284 777.301 38.22C776.991 38.156 776.645 38.0973 776.261 38.044C775.887 37.9907 775.509 37.9213 775.125 37.836C774.751 37.74 774.41 37.6067 774.101 37.436C773.791 37.2547 773.541 37.0147 773.349 36.716C773.157 36.4173 773.061 36.0227 773.061 35.532C773.061 34.988 773.215 34.5187 773.525 34.124C773.834 33.7187 774.266 33.4093 774.821 33.196C775.386 32.972 776.053 32.86 776.821 32.86C777.397 32.86 777.978 32.924 778.565 33.052C779.151 33.18 779.637 33.3613 780.021 33.596L779.253 35.116C778.847 34.8707 778.437 34.7053 778.021 34.62C777.615 34.524 777.21 34.476 776.805 34.476C776.197 34.476 775.743 34.5667 775.445 34.748C775.157 34.9293 775.013 35.1587 775.013 35.436C775.013 35.692 775.109 35.884 775.301 36.012C775.493 36.14 775.743 36.2413 776.053 36.316C776.362 36.3907 776.703 36.4547 777.077 36.508C777.461 36.5507 777.839 36.62 778.213 36.716C778.586 36.812 778.927 36.9453 779.237 37.116C779.557 37.276 779.813 37.5053 780.005 37.804C780.197 38.1027 780.293 38.492 780.293 38.972C780.293 39.5053 780.133 39.9693 779.813 40.364C779.503 40.7587 779.061 41.068 778.485 41.292C777.909 41.5053 777.221 41.612 776.421 41.612Z" fill="#2E2E2E"/>
<path d="M820.188 41.66C819.335 41.66 818.54 41.5213 817.804 41.244C817.079 40.956 816.444 40.556 815.9 40.044C815.367 39.5213 814.951 38.908 814.652 38.204C814.353 37.5 814.204 36.732 814.204 35.9C814.204 35.068 814.353 34.3 814.652 33.596C814.951 32.892 815.372 32.284 815.916 31.772C816.46 31.2493 817.095 30.8493 817.82 30.572C818.545 30.284 819.34 30.14 820.204 30.14C821.121 30.14 821.959 30.3 822.716 30.62C823.473 30.9293 824.113 31.3933 824.636 32.012L823.292 33.276C822.887 32.8387 822.433 32.5133 821.932 32.3C821.431 32.076 820.887 31.964 820.3 31.964C819.713 31.964 819.175 32.06 818.684 32.252C818.204 32.444 817.783 32.716 817.42 33.068C817.068 33.42 816.791 33.836 816.588 34.316C816.396 34.796 816.3 35.324 816.3 35.9C816.3 36.476 816.396 37.004 816.588 37.484C816.791 37.964 817.068 38.38 817.42 38.732C817.783 39.084 818.204 39.356 818.684 39.548C819.175 39.74 819.713 39.836 820.3 39.836C820.887 39.836 821.431 39.7293 821.932 39.516C822.433 39.292 822.887 38.956 823.292 38.508L824.636 39.788C824.113 40.396 823.473 40.86 822.716 41.18C821.959 41.5 821.116 41.66 820.188 41.66ZM829.949 41.612C829.074 41.612 828.296 41.4253 827.613 41.052C826.93 40.668 826.392 40.1453 825.997 39.484C825.602 38.8227 825.405 38.0707 825.405 37.228C825.405 36.3747 825.602 35.6227 825.997 34.972C826.392 34.3107 826.93 33.7933 827.613 33.42C828.296 33.0467 829.074 32.86 829.949 32.86C830.834 32.86 831.618 33.0467 832.301 33.42C832.994 33.7933 833.533 34.3053 833.917 34.956C834.312 35.6067 834.509 36.364 834.509 37.228C834.509 38.0707 834.312 38.8227 833.917 39.484C833.533 40.1453 832.994 40.668 832.301 41.052C831.618 41.4253 830.834 41.612 829.949 41.612ZM829.949 39.9C830.44 39.9 830.877 39.7933 831.261 39.58C831.645 39.3667 831.944 39.0573 832.157 38.652C832.381 38.2467 832.493 37.772 832.493 37.228C832.493 36.6733 832.381 36.1987 832.157 35.804C831.944 35.3987 831.645 35.0893 831.261 34.876C830.877 34.6627 830.445 34.556 829.965 34.556C829.474 34.556 829.037 34.6627 828.653 34.876C828.28 35.0893 827.981 35.3987 827.757 35.804C827.533 36.1987 827.421 36.6733 827.421 37.228C827.421 37.772 827.533 38.2467 827.757 38.652C827.981 39.0573 828.28 39.3667 828.653 39.58C829.037 39.7933 829.469 39.9 829.949 39.9ZM841.269 32.86C841.952 32.86 842.56 32.9933 843.093 33.26C843.637 33.5267 844.064 33.9373 844.373 34.492C844.683 35.036 844.837 35.74 844.837 36.604V41.5H842.837V36.86C842.837 36.1027 842.656 35.5373 842.293 35.164C841.941 34.7907 841.445 34.604 840.805 34.604C840.336 34.604 839.92 34.7 839.557 34.892C839.195 35.084 838.912 35.372 838.709 35.756C838.517 36.1293 838.421 36.604 838.421 37.18V41.5H836.421V32.956H838.325V35.26L837.989 34.556C838.288 34.012 838.72 33.596 839.285 33.308C839.861 33.0093 840.523 32.86 841.269 32.86ZM850.591 41.612C849.652 41.612 848.927 41.372 848.414 40.892C847.903 40.4013 847.647 39.6813 847.647 38.732V31.068H849.647V38.684C849.647 39.0893 849.748 39.404 849.951 39.628C850.164 39.852 850.457 39.964 850.831 39.964C851.279 39.964 851.652 39.8467 851.951 39.612L852.511 41.036C852.276 41.228 851.988 41.372 851.647 41.468C851.305 41.564 850.953 41.612 850.591 41.612ZM846.239 34.62V33.02H851.935V34.62H846.239ZM859.42 41.5V39.772L859.308 39.404V36.38C859.308 35.7933 859.132 35.34 858.78 35.02C858.428 34.6893 857.894 34.524 857.18 34.524C856.7 34.524 856.225 34.5987 855.756 34.748C855.297 34.8973 854.908 35.1053 854.588 35.372L853.804 33.916C854.262 33.564 854.806 33.3027 855.436 33.132C856.076 32.9507 856.737 32.86 857.42 32.86C858.657 32.86 859.612 33.1587 860.284 33.756C860.966 34.3427 861.308 35.2547 861.308 36.492V41.5H859.42ZM856.732 41.612C856.092 41.612 855.532 41.5053 855.052 41.292C854.572 41.068 854.198 40.764 853.932 40.38C853.676 39.9853 853.548 39.5427 853.548 39.052C853.548 38.572 853.66 38.14 853.884 37.756C854.118 37.372 854.497 37.068 855.02 36.844C855.542 36.62 856.236 36.508 857.1 36.508H859.58V37.836H857.244C856.561 37.836 856.102 37.948 855.868 38.172C855.633 38.3853 855.516 38.652 855.516 38.972C855.516 39.3347 855.66 39.6227 855.948 39.836C856.236 40.0493 856.636 40.156 857.148 40.156C857.638 40.156 858.076 40.044 858.46 39.82C858.854 39.596 859.137 39.2653 859.308 38.828L859.644 40.028C859.452 40.5293 859.105 40.9187 858.604 41.196C858.113 41.4733 857.489 41.612 856.732 41.612ZM867.81 41.612C866.914 41.612 866.114 41.4253 865.41 41.052C864.717 40.668 864.173 40.1453 863.778 39.484C863.383 38.8227 863.186 38.0707 863.186 37.228C863.186 36.3747 863.383 35.6227 863.778 34.972C864.173 34.3107 864.717 33.7933 865.41 33.42C866.114 33.0467 866.914 32.86 867.81 32.86C868.642 32.86 869.373 33.0307 870.002 33.372C870.642 33.7027 871.127 34.1933 871.458 34.844L869.922 35.74C869.666 35.3347 869.351 35.036 868.978 34.844C868.615 34.652 868.221 34.556 867.794 34.556C867.303 34.556 866.861 34.6627 866.466 34.876C866.071 35.0893 865.762 35.3987 865.538 35.804C865.314 36.1987 865.202 36.6733 865.202 37.228C865.202 37.7827 865.314 38.2627 865.538 38.668C865.762 39.0627 866.071 39.3667 866.466 39.58C866.861 39.7933 867.303 39.9 867.794 39.9C868.221 39.9 868.615 39.804 868.978 39.612C869.351 39.42 869.666 39.1213 869.922 38.716L871.458 39.612C871.127 40.252 870.642 40.748 870.002 41.1C869.373 41.4413 868.642 41.612 867.81 41.612ZM876.512 41.612C875.574 41.612 874.848 41.372 874.336 40.892C873.824 40.4013 873.568 39.6813 873.568 38.732V31.068H875.568V38.684C875.568 39.0893 875.67 39.404 875.872 39.628C876.086 39.852 876.379 39.964 876.752 39.964C877.2 39.964 877.574 39.8467 877.872 39.612L878.432 41.036C878.198 41.228 877.91 41.372 877.568 41.468C877.227 41.564 876.875 41.612 876.512 41.612ZM872.16 34.62V33.02H877.856V34.62H872.16Z" fill="#2E2E2E"/>
<path d="M1296 35.5C1296 21.6929 1307.19 10.5 1321 10.5H1383C1396.81 10.5 1408 21.6929 1408 35.5C1408 49.3071 1396.81 60.5 1383 60.5H1321C1307.19 60.5 1296 49.3071 1296 35.5Z" fill="#F36F23"/>
<path d="M1325.6 41.68C1324.61 41.68 1323.67 41.542 1322.77 41.266C1321.87 40.978 1321.16 40.612 1320.63 40.168L1321.44 38.35C1321.94 38.746 1322.57 39.076 1323.31 39.34C1324.06 39.604 1324.82 39.736 1325.6 39.736C1326.26 39.736 1326.79 39.664 1327.2 39.52C1327.61 39.376 1327.91 39.184 1328.1 38.944C1328.29 38.692 1328.39 38.41 1328.39 38.098C1328.39 37.714 1328.25 37.408 1327.97 37.18C1327.7 36.94 1327.34 36.754 1326.89 36.622C1326.46 36.478 1325.98 36.346 1325.44 36.226C1324.91 36.106 1324.37 35.968 1323.83 35.812C1323.31 35.644 1322.82 35.434 1322.38 35.182C1321.94 34.918 1321.59 34.57 1321.31 34.138C1321.04 33.706 1320.9 33.154 1320.9 32.482C1320.9 31.798 1321.08 31.174 1321.44 30.61C1321.81 30.034 1322.37 29.578 1323.11 29.242C1323.87 28.894 1324.82 28.72 1325.98 28.72C1326.73 28.72 1327.48 28.816 1328.23 29.008C1328.97 29.2 1329.62 29.476 1330.17 29.836L1329.43 31.654C1328.87 31.318 1328.29 31.072 1327.69 30.916C1327.09 30.748 1326.51 30.664 1325.96 30.664C1325.31 30.664 1324.78 30.742 1324.37 30.898C1323.98 31.054 1323.68 31.258 1323.49 31.51C1323.31 31.762 1323.22 32.05 1323.22 32.374C1323.22 32.758 1323.35 33.07 1323.62 33.31C1323.89 33.538 1324.25 33.718 1324.68 33.85C1325.12 33.982 1325.62 34.114 1326.16 34.246C1326.7 34.366 1327.23 34.504 1327.76 34.66C1328.3 34.816 1328.78 35.02 1329.22 35.272C1329.66 35.524 1330.01 35.866 1330.28 36.298C1330.55 36.73 1330.69 37.276 1330.69 37.936C1330.69 38.608 1330.51 39.232 1330.13 39.808C1329.77 40.372 1329.22 40.828 1328.46 41.176C1327.7 41.512 1326.75 41.68 1325.6 41.68ZM1332.8 41.5V31.888H1335.05V41.5H1332.8ZM1333.93 30.304C1333.51 30.304 1333.16 30.172 1332.89 29.908C1332.62 29.644 1332.49 29.326 1332.49 28.954C1332.49 28.57 1332.62 28.252 1332.89 28C1333.16 27.736 1333.51 27.604 1333.93 27.604C1334.35 27.604 1334.69 27.73 1334.96 27.982C1335.23 28.222 1335.37 28.528 1335.37 28.9C1335.37 29.296 1335.24 29.632 1334.97 29.908C1334.71 30.172 1334.36 30.304 1333.93 30.304ZM1342.36 45.118C1341.47 45.118 1340.6 44.998 1339.75 44.758C1338.91 44.53 1338.22 44.194 1337.68 43.75L1338.68 42.058C1339.1 42.406 1339.63 42.682 1340.27 42.886C1340.92 43.102 1341.57 43.21 1342.23 43.21C1343.29 43.21 1344.06 42.964 1344.55 42.472C1345.04 41.992 1345.29 41.266 1345.29 40.294V38.584L1345.47 36.406L1345.4 34.228V31.888H1347.54V40.042C1347.54 41.782 1347.1 43.06 1346.21 43.876C1345.32 44.704 1344.04 45.118 1342.36 45.118ZM1342.07 41.068C1341.16 41.068 1340.33 40.876 1339.58 40.492C1338.85 40.096 1338.27 39.55 1337.84 38.854C1337.42 38.158 1337.21 37.342 1337.21 36.406C1337.21 35.482 1337.42 34.672 1337.84 33.976C1338.27 33.28 1338.85 32.74 1339.58 32.356C1340.33 31.972 1341.16 31.78 1342.07 31.78C1342.88 31.78 1343.62 31.942 1344.26 32.266C1344.91 32.59 1345.43 33.094 1345.81 33.778C1346.21 34.462 1346.41 35.338 1346.41 36.406C1346.41 37.474 1346.21 38.356 1345.81 39.052C1345.43 39.736 1344.91 40.246 1344.26 40.582C1343.62 40.906 1342.88 41.068 1342.07 41.068ZM1342.41 39.16C1342.97 39.16 1343.48 39.046 1343.92 38.818C1344.37 38.578 1344.71 38.254 1344.95 37.846C1345.2 37.426 1345.33 36.946 1345.33 36.406C1345.33 35.866 1345.2 35.392 1344.95 34.984C1344.71 34.564 1344.37 34.246 1343.92 34.03C1343.48 33.802 1342.97 33.688 1342.41 33.688C1341.85 33.688 1341.34 33.802 1340.88 34.03C1340.44 34.246 1340.09 34.564 1339.84 34.984C1339.6 35.392 1339.48 35.866 1339.48 36.406C1339.48 36.946 1339.6 37.426 1339.84 37.846C1340.09 38.254 1340.44 38.578 1340.88 38.818C1341.34 39.046 1341.85 39.16 1342.41 39.16ZM1355.95 31.78C1356.72 31.78 1357.4 31.93 1358 32.23C1358.62 32.53 1359.1 32.992 1359.44 33.616C1359.79 34.228 1359.97 35.02 1359.97 35.992V41.5H1357.72V36.28C1357.72 35.428 1357.51 34.792 1357.1 34.372C1356.71 33.952 1356.15 33.742 1355.43 33.742C1354.9 33.742 1354.43 33.85 1354.03 34.066C1353.62 34.282 1353.3 34.606 1353.07 35.038C1352.86 35.458 1352.75 35.992 1352.75 36.64V41.5H1350.5V31.888H1352.64V34.48L1352.26 33.688C1352.6 33.076 1353.08 32.608 1353.72 32.284C1354.37 31.948 1355.11 31.78 1355.95 31.78ZM1367.79 41.5V31.888H1370.04V41.5H1367.79ZM1368.93 30.304C1368.51 30.304 1368.16 30.172 1367.88 29.908C1367.62 29.644 1367.49 29.326 1367.49 28.954C1367.49 28.57 1367.62 28.252 1367.88 28C1368.16 27.736 1368.51 27.604 1368.93 27.604C1369.35 27.604 1369.69 27.73 1369.95 27.982C1370.23 28.222 1370.37 28.528 1370.37 28.9C1370.37 29.296 1370.24 29.632 1369.97 29.908C1369.71 30.172 1369.36 30.304 1368.93 30.304ZM1378.45 31.78C1379.22 31.78 1379.9 31.93 1380.5 32.23C1381.12 32.53 1381.6 32.992 1381.94 33.616C1382.29 34.228 1382.47 35.02 1382.47 35.992V41.5H1380.22V36.28C1380.22 35.428 1380.01 34.792 1379.6 34.372C1379.21 33.952 1378.65 33.742 1377.93 33.742C1377.4 33.742 1376.93 33.85 1376.53 34.066C1376.12 34.282 1375.8 34.606 1375.57 35.038C1375.36 35.458 1375.25 35.992 1375.25 36.64V41.5H1373V31.888H1375.14V34.48L1374.76 33.688C1375.1 33.076 1375.58 32.608 1376.22 32.284C1376.87 31.948 1377.61 31.78 1378.45 31.78Z" fill="white"/>
<defs>
<clipPath id="clip0_13_4105">
<rect width="155" height="30" fill="white" transform="translate(32 20.5)"/>
</clipPath>
</defs>
</svg>
